<svg id="Layer_1" data-name="Layer 1" xmlns="http://www.w3.org/2000/svg" viewBox="0 0 505.12 505.05"><defs><style>.cls-1{fill:#7d402d;}.cls-2{fill:#af593f;}.cls-3{fill:#46bfd8;}.cls-4{fill:#fefefe;}.cls-5{fill:#73cade;}.cls-6{fill:#82cee1;}.cls-7{fill:#874e3b;}.cls-8{fill:#c1a092;}.cls-9{fill:#b28978;}.cls-10{fill:#fbf2b6;}.cls-11{fill:#ffde91;}.cls-12{fill:#4957a6;}.cls-13{fill:#fec151;}.cls-14{fill:#27b575;}.cls-15{fill:#fcb42d;}.cls-16{fill:#964d36;}.cls-17{fill:#159b63;}.cls-18{fill:#47bfd7;}.cls-19{fill:#3d4a9f;}.cls-20{fill:#dc7f27;}.cls-21{fill:#7ed1e2;}.cls-22{fill:#fef4f5;}.cls-23{fill:#3e4a9f;}.cls-24{fill:#da7e28;}.cls-25{fill:#f99f27;}.cls-26{fill:#f89e28;}.cls-27{fill:#f89f27;}.cls-28{fill:#7ed0e2;}.cls-29{fill:#d47f6c;}.cls-30{fill:#fec254;}.cls-31{fill:#fec253;}.cls-32{fill:#8d94ca;}.cls-33{fill:#ffdd8f;}.cls-34{fill:#169b64;}.cls-35{fill:#8fcd9e;}.cls-36{fill:#fabdab;}.cls-37{fill:#fba91a;}.cls-38{fill:#fabeac;}.cls-39{fill:#fbccbf;}.cls-40{fill:#fbcdbf;}.cls-41{fill:#e09380;}.cls-42{fill:#2c3378;}.cls-43{fill:#2b3c93;}.cls-44{fill:#e4554f;}.cls-45{fill:#f8a68f;}.cls-46{fill:#7d402e;}.cls-47{fill:#fedc90;}.cls-48{fill:#7ed0e1;}.cls-49{fill:#d47f6d;}.cls-50{fill:#f8a78f;}.cls-51{fill:#d3d4d8;}.cls-52{fill:#fadc91;}.cls-53{fill:#2d3479;}.cls-54{fill:#3e4b9f;}.cls-55{fill:#d7302f;}.cls-56{fill:#e7cd92;}.cls-57{fill:#2e3579;}.cls-58{fill:#2f3579;}.cls-59{fill:#f8a790;}.cls-60{fill:#f3ebef;}.cls-61{fill:#f5ecef;}.cls-62{fill:#b3715c;}.cls-63{fill:#2e3479;}.cls-64{fill:#b4725d;}.cls-65{fill:#f0e6ea;}.cls-66{fill:#f5ecee;}.cls-67{fill:#d4806d;}.cls-68{fill:#503024;}.cls-69{fill:#502f24;}.cls-70{fill:#d5806d;}.cls-71{fill:#f4e9e8;}.cls-72{fill:#f8eeed;}.cls-73{fill:#e09280;}</style></defs><path class="cls-1" d="M270.31,509h-5.92a7.78,7.78,0,0,0-5.92,0h-4a10.34,10.34,0,0,0-6.9,0h-4.93c-.55-.6-1.28-.47-2-.49s-1.42-.11-2,.49h-4c-11-1.59-22.13-1.4-33.06-3.92C156.88,494.76,117.46,474.35,83.62,443A261.85,261.85,0,0,1,31,374.65a212.07,212.07,0,0,1-10.19-22.41c-1-2.56-2.24-5.3.35-7.79,2.85-1.85,6.06-1.24,9.12-1.24q57.16-.07,114.32,0,168.27,0,336.53,0c3.56,0,7.25-.75,10.62,1.13,3,2.77,1.36,5.79.24,8.6a227,227,0,0,1-22.16,42.21c-40.14,60-95.48,97.27-166.31,111.44-7.74,1.54-15.64,1.31-23.47,2-1.27.11-2.63-.42-3.79.49h-2c-.55-.6-1.28-.47-2-.49S270.86,508.43,270.31,509Z" transform="translate(-3.91 -3.98)"/><path class="cls-2" d="M509,338.37c-2.81,5.22-7.08,7.66-13.06,6.92a4.06,4.06,0,0,0-3.6.93c-1.71-1.42-3.77-.92-5.69-.92q-230.19,0-460.37,0c-1.92,0-4-.5-5.69.92-1.18-1.18-2.68-.91-4.12-.94-7.16-.17-10.83-2.37-12.21-7.32-1.31-4.67.75-8.59,6.43-12.24,1.3-2.15,3.45-2.18,5.57-2.2,6.63-.06,13.27-.18,19.9.05,4.35.22,8.71-.45,13.05.2a68.74,68.74,0,0,1,12.91,0,64.25,64.25,0,0,1,12.09,0c11.12-.47,22.24-.45,33.36,0,19.3-.43,38.61-.48,57.91,0,9.13-.39,18.26-.49,27.39,0a45.08,45.08,0,0,1,4.65,0,149.19,149.19,0,0,1,20.39,0,66.42,66.42,0,0,1,12.13,0c11.13-.47,22.26-.45,33.39,0,21.88-.43,43.75-.48,65.62,0a111.5,111.5,0,0,1,16.55,0c2.64-.1,5.28-.31,7.92-.53,9.12.44,18.24.35,27.36,0,8.17.64,16.37-.2,24.54.52a63.93,63.93,0,0,1,12.06,0q16.64-.71,33.28,0c13.57-.4,27.14-.49,40.7,0,2.35.05,4.7-.46,7.06-.1,5.55.47,9.59,2.76,10.48,8.8Z" transform="translate(-3.91 -3.98)"/><path class="cls-3" d="M499.45,325.39h-7.2c-2.36-2-2-4.71-2-7.31,0-17.4-.11-34.8,0-52.2.09-12.17-4-22.11-14.41-29a9.21,9.21,0,0,1-3.38-3.49c-2-5.95-2.3-12.23-3.69-18.31-.46-2-.9-4.23.41-6.22,4.85-1.69,5.7-5.38,5.32-10a39.35,39.35,0,0,1,.56-11.14c1.69-4.53,3.9-8.82,3.46-14-.32-3.79-3.43-6.34-3.54-10.05-1.16-8.81-.47-17.65-.45-26.47a4.21,4.21,0,0,1,2.23-4.09,248.08,248.08,0,0,1,30.49,93.22c.41,3.47-.14,7.18,1.78,10.42v4.93a10.37,10.37,0,0,0,0,6.91v11.83a17.36,17.36,0,0,0,0,8.88v8.88c-1.48,7.39-1,15-2,22.41-.87,6.85-2.67,13.49-4.21,20.2A6.45,6.45,0,0,1,499.45,325.39Z" transform="translate(-3.91 -3.98)"/><path class="cls-4" d="M499.45,325.39c4.2-14.29,6.62-28.93,8.4-43.69.14-1.22-.26-2.69,1.18-3.5v54.25C506.81,328.77,504.08,325.79,499.45,325.39Z" transform="translate(-3.91 -3.98)"/><path class="cls-5" d="M509,269.32a9.16,9.16,0,0,1,0-8.88Z" transform="translate(-3.91 -3.98)"/><path class="cls-6" d="M509,248.61a5.88,5.88,0,0,1,0-6.91Z" transform="translate(-3.91 -3.98)"/><path class="cls-7" d="M247.62,509a5.93,5.93,0,0,1,6.9,0Z" transform="translate(-3.91 -3.98)"/><path class="cls-7" d="M258.47,509a4.62,4.62,0,0,1,5.92,0Z" transform="translate(-3.91 -3.98)"/><path class="cls-8" d="M238.74,509c.3-1.08,1.12-.92,1.93-.83.68.24.69.52,0,.83Z" transform="translate(-3.91 -3.98)"/><path class="cls-9" d="M240.71,509c0-.28,0-.55,0-.83.84-.14,1.6-.07,2,.83Z" transform="translate(-3.91 -3.98)"/><path class="cls-9" d="M270.31,509c.42-.89,1.17-1,2-.83.36.2.47.4.34.57a.53.53,0,0,1-.39.26Z" transform="translate(-3.91 -3.98)"/><path class="cls-8" d="M272.28,509a7.7,7.7,0,0,1,.05-.83c.8-.11,1.63-.26,1.92.83Z" transform="translate(-3.91 -3.98)"/><path class="cls-10" d="M218,379q46.85-.08,93.67-.16,21.19,0,42.4,0c7.25,0,10.9,3.63,10.91,10.85q0,28.85,0,57.69c0,6.15-3.67,10.32-9.43,10.32q-68.78,0-137.54-.12c-6.94-1.86-8.77-4.09-8.9-11.4-.16-8.86-.08-17.72,0-26.58,0-2,.19-3.94,1.52-5.58,2.3-2.14,5.2-1.72,7.95-1.72q39.68-.07,79.34,0a48.55,48.55,0,0,0,5.91-.16c1.7-.2,3.35-.65,3.65-2.66s-1.15-2.52-2.64-3a31.74,31.74,0,0,0-10.65-1.53q-38.37.09-76.74,0c-7.2,0-8.23-1.06-8.37-8.22,0-2.13,0-4.26,0-6.39C209.32,383,211,380.87,218,379Z" transform="translate(-3.91 -3.98)"/><path class="cls-11" d="M218,379c-6,2.76-7.11,7.82-7,13.86.25,10.67.07,10.68,10.72,10.68q39.18,0,78.37,0c1.94,0,4-.43,5.75.78-1.93,2.84-4.94,2.17-7.62,2.17-27.83.07-55.65,0-83.48.05-1.8,0-3.61-.07-5.4.09-1.64.15-3.45.25-3.8,2.34-.29,1.8,1,2.61,2.48,3.18,1.23.5,2.46,1,3.09,2.24,0,10.13.16,20.27-.11,30.39-.16,5.81,1.57,10.2,7,12.79-20,.05-40.08.18-60.12.1-5.88,0-9.83-4.12-9.86-10.08q-.16-29.32,0-58.65c0-6,4-10,9.87-10.06C177.94,378.8,198,378.93,218,379Z" transform="translate(-3.91 -3.98)"/><path class="cls-12" d="M88.9,67.23Q70,67.11,51,67c-1.93,0-4,.44-5.74-.78,1.55-2.26,4-2,6.21-2.07,4.39-.1,8.79,0,13.71-.1-3.3-8.55-1.92-17.05-2-25.44,0-5.31,2-9.61,7.82-10.9,14.72-1,29.46-.18,44.19-.48,12.43-.25,24.88.59,37.3-.49,4.23-1.22,8.43-2.58,12.93-1.51,7,1.68,10.64,5.76,11.1,13a113.68,113.68,0,0,1-.19,15.66c.34,9.34-4.69,14.92-13.89,15.19-3.58.11-7.17.31-10.76.26-6.32-.5-12.66.18-19-.43-13,.64-26,.22-39,.23C91.87,69.12,90.11,68.86,88.9,67.23Z" transform="translate(-3.91 -3.98)"/><path class="cls-13" d="M366.81,29.45l99.51.16c11.8,0,14.72,2.94,14.73,14.89,0,4.59.18,9.2-.1,13.79-.45,7.62-3.91,10.94-11.57,11-12.48.13-25,0-37.45.06-1.79,0-3.58.23-5.37.36a5.28,5.28,0,0,1-4,1.36c-13.66,0-27.32.43-41-.23-7.94-1.48-11.63-5.36-11.56-13.31.08-8.12-1.51-16.39,1.88-24.58-4.82-.7-9.37-.13-13.89-.37-2.26-.11-4.69.17-6-2.36,1.46-3,4.17-2.86,6.73-2.43A47.89,47.89,0,0,1,366.81,29.45Z" transform="translate(-3.91 -3.98)"/><path class="cls-14" d="M222.88,4.13Q269,4,315.07,4c5.43,0,8.42,3,9.66,9.16a9.87,9.87,0,0,1,1.89,5.94c-.05,4.9.15,9.8-.09,14.69C326.19,40.9,322,44.89,315,44.87a44.06,44.06,0,0,0-8.27.71c-14-.08-28-.28-42,.17-6.38-.71-12.82.16-19.2-.58A129.16,129.16,0,0,1,223.28,45c-7.24-2.61-9.9-7.86-9.33-15.36.36-4.72,0-9.5.09-14.25C214.17,7.89,215.58,6.11,222.88,4.13Z" transform="translate(-3.91 -3.98)"/><path class="cls-3" d="M11.82,318.78c-15.76-65-8-126.95,24.44-185.62a4.23,4.23,0,0,1,2.2,4.12c0,8.69.71,17.4-.41,26.06-1.24,5.07-4.54,9.56-3.58,15.32.88,5.29,4.24,9,9.39,9A7.28,7.28,0,0,1,47.75,189a4.08,4.08,0,0,1,1.07,2.33c-.27,8.68-3.71,16.71-5.21,25.14A5.41,5.41,0,0,1,41.19,220c-4.32,1.54-8.6,1.75-12.8-.39-1.19-1-1.55-2.46-2-3.86s-1.17-2.46-2.77-2.33c-1.84.16-2.31,1.61-2.55,3.13a34.92,34.92,0,0,0-.2,5.41q0,44.35,0,88.69c0,2.91.53,6-1.73,8.46C16.57,320.75,14.13,321,11.82,318.78Z" transform="translate(-3.91 -3.98)"/><path class="cls-15" d="M36.62,164.61l-.36-31.45C37.24,113.41,47,99.82,65.07,92a18.41,18.41,0,0,1,12.69-4.27c4.57,0,9.16-.2,13.73.11,4.23.29,8,1.58,9.9,6a6.27,6.27,0,0,1-.92,4.66c-3.76,6.34-3.3,13-1.75,19.8.51,2.22,1.21,4.41.25,6.67-3.27,7-9.38,10.74-16,13.6A44.44,44.44,0,0,1,59,141.72a15.4,15.4,0,0,0-3.38.35c-8.6.65-8.54.66-9.92,9.23-.6,3.68.49,7.53-1.21,11.08a3.88,3.88,0,0,1-1.07,1.21C41.18,164.11,39.16,166.08,36.62,164.61Z" transform="translate(-3.91 -3.98)"/><path class="cls-16" d="M476.76,133.13q-.19,15.81-.38,31.61c-3,1.31-5.27-.12-7.5-1.86-1.28-1.86-1.26-4-1.3-6.12,0-2.45.13-4.91-.15-7.35-.8-6.79-1.38-7.26-8.26-7.32-3.26,0-6.52,0-9.79-.33-11.78-1.14-20.42-7.15-26.77-16.87-3.77-9.74-5.65-19.43.74-28.92a13,13,0,0,1,1.93-2.19c7.45-6.48,14-7.51,21.46-3.38,19.23,5.07,29.63,18.46,29.8,38.34C476.55,130.2,476.68,131.67,476.76,133.13Z" transform="translate(-3.91 -3.98)"/><path class="cls-3" d="M100.83,94.49c-2.69-3.54-6.45-4.63-10.67-4.7-8.45-.15-16.88-.23-25.09,2.23C72.21,83,80.86,75.4,88.9,67.23l44,0c2.85,1.74,3.37,4.44,3.09,7.47a7.27,7.27,0,0,1-3.29,4c-5.6,3.83-10.63,8.42-16.29,12.19-4.2,1-8.51,1.6-12.39,3.74A2.74,2.74,0,0,1,100.83,94.49Z" transform="translate(-3.91 -3.98)"/><path class="cls-17" d="M222.88,4.13c-5.57,2.45-7.42,6.77-6.92,12.69a83.19,83.19,0,0,1,0,13.76c-.5,5.92,1.34,10.24,6.93,12.68-1.19,2-3.17,2.12-5.17,2.18-3.77.11-7.55,0-11.33.15a56.4,56.4,0,0,0-8.32-.73c-5.67,0-9.95-3-11-8.57-1.32-6.62-.79-13.4-.31-20.11.09-1.14,1-2,1.57-3C190.13,6.29,193,4,200,4,207.61,4,215.25,4.07,222.88,4.13Z" transform="translate(-3.91 -3.98)"/><path class="cls-18" d="M446.74,90.4a25.22,25.22,0,0,0-20.29,4c-9.14-3.3-18.62-2.8-28.08-2.52C391.06,86.62,383.22,82,377.21,75c-.4-3.11,1.56-4.65,3.94-5.9,13.19.06,26.39.1,39.59.19,1.94,0,3.87.26,5.82.4Z" transform="translate(-3.91 -3.98)"/><path class="cls-19" d="M71,27.67c-4.39,3.09-6.25,7.3-5.94,12.68.22,3.93.16,7.88,0,11.81-.19,4.87.31,9.46,5.3,14H45.26c-4.81-.86-7.09-4.25-7.34-8.61a198.5,198.5,0,0,1-.06-20.7c.28-5.78,4.21-9.28,10-9.35C55.6,27.42,63.32,27.6,71,27.67Z" transform="translate(-3.91 -3.98)"/><path class="cls-3" d="M306.84,43.59c2.77-.06,5.55-.07,8.32-.18,5.48-.22,9.22-3.71,9.4-9.21.23-7,.13-14,.17-21.05,14.4,4.48,28.69,9.23,42.08,16.3-4.9.83-9.93-.67-14.78.86-6.45,5.7-6,13.28-5.78,20.84a7.36,7.36,0,0,1-1.39,5.12c-1.43,1.26-3.08,1-4.61.44a290.08,290.08,0,0,0-30.13-10.07C308.64,46.24,306.87,45.74,306.84,43.59Z" transform="translate(-3.91 -3.98)"/><path class="cls-3" d="M188.28,13.14c0,5.91.07,11.81.09,17.72,0,9.14,3.37,12.5,12.4,12.57,1.8,0,3.6.11,5.4.16,0,2.17-1.83,2.6-3.33,3-8,2.33-16.07,4.63-23.87,7.67a4.52,4.52,0,0,1-4.27-.08c0-5.06-.07-10.11-.17-15.17-.15-7.63-3.7-11.44-11.26-12-3.57-.25-7.16-.26-10.75-.38C163.84,20.59,176.16,17.12,188.28,13.14Z" transform="translate(-3.91 -3.98)"/><path class="cls-20" d="M11.82,318.78l6.7-.53c3-2.28,6.4-1.66,9.75-1.36,2.06-.06,4.13-.46,6.16.33,3.94,1.52,4.84,4.45,2.49,8.16l-26.2.34C8.94,323.07,10.3,320.91,11.82,318.78Z" transform="translate(-3.91 -3.98)"/><path class="cls-21" d="M174.7,54.22c10-5,20.94-7.22,31.47-10.63l16.73-.33,22.5.27c2.33,1.21,2.7,3.57,3.34,5.75.56,1.89,1.07,3.79,1.67,5.67.44,1.36.5,3.29,2.13,3.59,2,.36,2.59-1.7,3.48-3,1.59-2.29,2.89-4.77,4.38-7.12,1-1.66,2-3.47,4.15-3.94a5,5,0,0,1,3.62-1.1q19.33.12,38.67.18c12.63,3.66,25.22,7.4,37.31,12.66,1.72.84,1.82,2.58,2.27,4.12,1.24,4.27,4.07,6.4,8.53,6.78,7.08.61,7.72,1.25,9.6,8.17A55.17,55.17,0,0,0,366.2,81c.51,1.31.46,3.23,2.18,3.54s2.16-1.67,3.07-2.73c2-2.38,2.55-6.22,6.51-6.73,6.79,4.79,14,9.09,19.59,15.38-.69,2.22-2.72,2.62-4.54,3.3-18.93,7.11-28.84,21.46-29,41.59-.08,9.8.67,19.61-.56,29.39-5.06,7.78-3.9,15.54,0,23.31,1.21,6.5.28,13.08.74,19.6.12,1.43.85,2.76.73,4.24-1.37,5.64-.7,11.38-.87,17.07-.07,2.44.21,4.94-1.21,7.15-10.54,8.59-14.72,19.9-14.6,33.25.15,16.36.05,32.73,0,49.09,0,2.45.22,5-1.57,7l-17.31-.06c-2.34-2-1.94-4.74-1.94-7.33-.05-17.92.18-35.84-.11-53.75-.17-10.66-3.79-19.95-13-26.3a28,28,0,0,0-15.68-5.1c-3.24-.06-6.61.63-9.65-1.18-2.13-3.07-5-4.1-8.74-3.84-3,.21-6.17.5-9.15-.66a3.92,3.92,0,0,1-1.29-.87c-1.76-5.25-1.22-7.34,3.63-9.48,11.88-5.27,21-13.29,26.73-25.07a7,7,0,0,1,3.34-3.5c4.48-1.17,9.54-1.37,11.31-7a16.71,16.71,0,0,0-.61-12.32c-.67-1.47-1.72-2.76-2-4.42-1.28-12.41-.23-24.86-.61-37.28-.46-15.23-7.85-26.1-21.47-32.47-7.28-3.42-15-4.71-22.62-.28a6.67,6.67,0,0,1-4.25.93c-16.7-7.15-32.44-4.82-46.73,5.78-10.4,7.71-14.74,19-15.3,31.69-.46,10.48.63,21-.63,31.45-2.05,4.62-4.22,9.12-3.43,14.51.77,5.15,4.21,8.68,9.24,8.75a9.84,9.84,0,0,1,3.73,1c1.7,1.16,2.5,3,3.44,4.71,5.72,10.4,13.77,18.16,24.9,22.68,6.43,2.61,7.43,6.33,3.39,11.12-5.65,1.87-11.3-.22-17,0-7-6.42-15.6-6.24-24.36-6.22-5.57,0-11.45,1.7-16.76-1.63a6,6,0,0,1-1.22-2.11c-.63-1.83-.93-4.29-3.65-3.66-2.44.57-2.21,3-2.27,4.92-.15,5.09-.06,10.18-.06,15.27q0,38.66,0,77.32c0,4.11-.72,7.54-5.17,9-1.79.53-3.57.86-5.24-.34-1.93-2.2-1.57-4.9-1.57-7.49-.05-16.06.25-32.12-.11-48.16-.3-13.11-5.93-23.33-18.25-29-4.65-2.15-9.78-2.53-14.83-3.05-1.79-.19-3.6-.18-5.23-1.08-2.12-2.3-4.75-3-7.86-3-3.37,0-6.81.56-10.11-.71a4.12,4.12,0,0,1-1.28-.9c-1.86-5.84-1.17-7.75,4.2-9.94a48.38,48.38,0,0,0,25.24-22.82c1.07-2,2.06-4.12,4.28-5.2a23,23,0,0,1,2.33-.67c8.76-2,12.25-8.88,8.84-17.32-.79-2-2.14-3.67-2.41-5.83-1.25-11.45-.59-22.93-.52-34.38.13-19.18-11.4-33.85-28.33-37.56-1.75-.39-3.51-1-4.31-2.88,5.38-5.87,12.17-10,18.49-14.64,2.15.43,2.43,2.35,3.14,3.94.51,1.15.6,2.86,2.09,3,1.68.18,2.33-1.51,3.11-2.69,1.59-2.44,3-5,4.55-7.46,1-1.61,1.94-3.43,4.16-3.77,2.67-1.8,5.68-.87,8.52-.91C170.6,67,173.83,64.17,174.7,54.22Z" transform="translate(-3.91 -3.98)"/><path class="cls-12" d="M473.49,232.88c13.64,7.45,19.26,19,18.87,34.43-.48,19.35-.11,38.72-.11,58.08l-41.22.05c-2.21-1.56-2.73-4-3.12-6.4-.34-2.09-.85-4.15-1.25-6.23-1.49-7.8-1.65-7.83-9.47-7.92s-15.34.33-23-.26c-2.7-.22-3.24,1.81-3.71,3.73-.88,3.67-1.55,7.39-2.32,11.09-.46,2.22-.71,4.61-2.93,6-7,0-14.08.09-21.12.08-1.23,0-2.68.48-3.57-.94-2.15-4.18-7.59-4.23-10.05-8-1.09-3.35-.63-6.8-.65-10.2q-.07-17.62,0-35.23c0-2.42-.25-4.94,1.5-7,1.64-1.58,3.72-1.82,5.84-1.76,5.62.13,11.28-.61,16.86.52,7.52,8.14,17.33,7.73,27.2,7.41,3.59-.11,5-1.55,4.88-5-.1-4.72,0-9.46,0-14.19,0-2.12-.1-4.25.75-6.28,2.73-2.85,3.67-6.44,4.16-10.2.28-2.12.44-4.25,2.36-5.69a7.85,7.85,0,0,1,4.23-1c9.48.16,19-.7,28.41,1C469.07,229.34,471.72,230.2,473.49,232.88Z" transform="translate(-3.91 -3.98)"/><path class="cls-14" d="M126,230c3.92.22,7.87.2,11.76.69,17.12,2.14,28.67,15,28.82,32.35.15,16.89,0,33.78.05,50.68,0,2,.17,3.92.26,5.88,1.19,2.17.67,4.09-.84,5.87l-58.43-.07c-3.35-2.43-3.2-6.35-3.9-9.78-2.44-11.82-1.39-10.61-13.16-10.74-6.56-.07-13.13.32-19.68-.26-3-.16-3.34,2.14-3.74,4.22-.71,3.69-1.49,7.38-2.19,11.08-.41,2.12-1,4.15-2.92,5.48H49.36c-1.92-1.49-2.06-3.61-2.07-5.79q-.1-24.87,0-49.74c0-1.82.06-3.63,1.2-5.19a3.3,3.3,0,0,1,3.28-1.12c7.65,8.34,17.7,6.83,27.43,6.68,2.42,0,3.52-1.23,3.62-3.64.14-3.25-.36-6.56.69-9.76,2.35-2.91,2.92-7.06,6.37-9.22a9,9,0,0,1,7.07-.26c3.34,1.92,4.41,5.55,6.34,8.53,2.36,3.66,2.93,3.74,5.23-.08,4.3-7.16,8.4-14.43,12.67-21.6C122.29,232.35,123.06,229.84,126,230Z" transform="translate(-3.91 -3.98)"/><path class="cls-22" d="M289,230.56c5.39.35,10.85-.54,16.16.89,14.77,4,24.17,16.25,24.23,31.91.09,20.67,0,41.33,0,62l-65.8,0a4.59,4.59,0,0,1-1.64-5.1,15.84,15.84,0,0,0,.9-5.81c-1.32-15.4.17-30.86-1-46.25.06-3.34,0-6.69,1.4-9.84.56-.9,1.45-1.66,2.38-1,3.76,2.69,5.09-.15,6.57-2.71,3.75-6.47,7.55-12.9,11.33-19.35C284.78,233.18,285.71,230.44,289,230.56Z" transform="translate(-3.91 -3.98)"/><path class="cls-22" d="M217.79,325.39h-20.4c-1.76-1.33-2.08-3.23-2.1-5.26q-.19-25.77,0-51.54a9.53,9.53,0,0,1,.85-3.8c3.89-4.18,7.15-4.41,12.42-.89,4.28,4.56,9.47,6.9,15.81,6.39.49,0,1,0,1.48,0,3.6-.12,7.46.89,10.74-.44,4.27-1.72.85-6.74,3.06-9.62a9.68,9.68,0,0,1,9-.14c1.5,2.55,1.64,5.32,1.42,8.17-.74,9.31-.19,18.63-.38,27.94-.05,2.44.16,4.95-1.58,7-2.25,2.1-5.1,1.69-7.79,1.69-4.35,0-8.7.28-13-.23-2.84-.44-3.73,1.42-4.23,3.66-.83,3.69-1.55,7.39-2.31,11.09C220.29,321.64,220,324,217.79,325.39Z" transform="translate(-3.91 -3.98)"/><path class="cls-23" d="M346.73,325.41q0-30.23,0-60.46c0-12.42,3.95-22.77,15.21-29.34,1.77,1.07,2.14,2.81,2.15,4.67.12,24.73.23,49.47-.06,74.2a5.41,5.41,0,0,1-.42,1.9,4,4,0,0,1-2.63,2.62c-3.35.77-5.38,3.24-7.55,5.55C351.38,326.5,349,325.23,346.73,325.41Z" transform="translate(-3.91 -3.98)"/><path class="cls-17" d="M49.3,264.35l.06,61H36.92c.87-5.87-.28-6.86-8.17-7.06-2.05-1.38-2.16-3.52-2.17-5.67q-.13-21.53,0-43.07c0-2,.12-3.93,1.54-5.53C35.21,261.44,42.28,261,49.3,264.35Z" transform="translate(-3.91 -3.98)"/><path class="cls-13" d="M413.34,303c9.83,0,19.67,0,29.51-.21,2.87-.05,4.28,1.25,4.76,3.83,1.18,6.26,2.28,12.53,3.42,18.8l-33.61-.07C414.05,321.28,411.49,307.29,413.34,303Z" transform="translate(-3.91 -3.98)"/><path class="cls-13" d="M225.87,303l22-.31c6.92-4.27,13.25-1.56,14.52,6.25a64.7,64.7,0,0,1,.9,11.72c.1,1.56.19,3.12.29,4.68H230a6.5,6.5,0,0,1-2.58-4.5c-.76-4.46-1.71-8.87-2.53-13.31C224.58,305.93,224.56,304.33,225.87,303Z" transform="translate(-3.91 -3.98)"/><path class="cls-13" d="M70,303c9.8,0,19.6,0,29.39-.19,2.83,0,4.23,1.25,4.72,3.86q1.75,9.35,3.49,18.71l-33.51,0C70.77,321.28,68.21,307.29,70,303Z" transform="translate(-3.91 -3.98)"/><path class="cls-11" d="M197.26,264.29q.06,30.54.13,61.1l-4.13.1c-1.88-2.1-2.88-5.14-6.15-5.8-3.36-1.29-4.67-3.79-4.68-7.3,0-14.44-.08-28.88,0-43.32A7.29,7.29,0,0,1,184,264C188.49,261.72,192.91,261.15,197.26,264.29Z" transform="translate(-3.91 -3.98)"/><path class="cls-24" d="M353.39,324.55c.05-5.53.64-6,8.64-6.8a11.72,11.72,0,0,1,9.86,0c3.95.95,9.71-.39,8.65,6.87A76.68,76.68,0,0,1,353.39,324.55Z" transform="translate(-3.91 -3.98)"/><path class="cls-25" d="M225.87,303c1.5,7.42,3.46,14.75,4.12,22.33l-12.2,0c1.15-6.23,2.25-12.46,3.46-18.68C221.73,304.26,222.81,302.35,225.87,303Z" transform="translate(-3.91 -3.98)"/><path class="cls-26" d="M413.34,303l4.08,22.35-12.19.08c1.13-6.25,2.2-12.52,3.42-18.76C409.13,304.27,410.25,302.29,413.34,303Z" transform="translate(-3.91 -3.98)"/><path class="cls-20" d="M189.47,318.5c4.05.82,4,3.89,3.79,7l-27.2,0a7.64,7.64,0,0,1,.85-5.87c1.17-.76,2.35-1.47,3.85-1.17C177,315.87,183.24,317,189.47,318.5Z" transform="translate(-3.91 -3.98)"/><path class="cls-27" d="M70,303q2,11.18,4.09,22.35l-12.08,0c1.14-6.21,2.22-12.43,3.43-18.62C65.94,304.39,67,302.38,70,303Z" transform="translate(-3.91 -3.98)"/><path class="cls-28" d="M473.49,232.88c-13.21-4.42-26.85-2.17-40.32-2.65-3-2.7-2.26-6-1.49-9.3.21-.62.4-1.36.93-1.67,6.95-4.08,13.59-8.74,21.22-11.57a53,53,0,0,1,10.67-.56c2,.11,3.93.22,5.08,2.21A143.14,143.14,0,0,1,473.49,232.88Z" transform="translate(-3.91 -3.98)"/><path class="cls-16" d="M469.58,209.34,452.85,209a2,2,0,0,1,.13-2.29c5.19-5.42,8.14-12.4,12.76-18.22,3.49-.9,6.93-2.24,10.63-1.09.05,4.76.12,9.52.14,14.28C476.53,209,476.51,209,469.58,209.34Z" transform="translate(-3.91 -3.98)"/><path class="cls-29" d="M476.37,187.41c-3.21,2.31-7,2-10.62,2.25-1.84-2.54-.21-5,.22-7.46.82-4.62,1.71-9.22,1.61-13.95,0-2.11,0-4.27,2.1-5.63,2.48-.1,4.61.95,6.7,2.12C482.3,171.93,482.29,180.06,476.37,187.41Z" transform="translate(-3.91 -3.98)"/><path class="cls-13" d="M211.16,414.39c-4-.13-8.78.2-8.65-5.39s4.88-4.53,8.59-4.53l94.79-.15c3.38.4,5.2,2.43,4.62,5.68-.63,3.52-3.51,4.29-6.78,4.28q-37.91-.06-75.83,0C222.32,414.27,216.74,414.35,211.16,414.39Z" transform="translate(-3.91 -3.98)"/><path class="cls-13" d="M256.35,424.12c10.33,0,20.66.05,31,0,3.53,0,6.52.77,6.49,4.85s-3,5.06-6.49,5.05q-30.73,0-61.48,0c-3.71,0-6.78-1.12-6.73-5.34s3.38-4.57,6.72-4.56C236,424.14,246.18,424.12,256.35,424.12Z" transform="translate(-3.91 -3.98)"/><path class="cls-30" d="M347.08,398.5c-2.89-.43-4.86-1.76-4.81-5a4.37,4.37,0,0,1,4.59-4.67c3.14-.13,4.9,2,4.88,4.9C351.73,396.42,349.94,398.14,347.08,398.5Z" transform="translate(-3.91 -3.98)"/><path class="cls-30" d="M351.93,442.88c-.64,2.79-1.9,4.91-4.83,4.86s-4.89-1.7-4.82-4.92,2.1-4.75,5.07-4.65S351.39,440.47,351.93,442.88Z" transform="translate(-3.91 -3.98)"/><path class="cls-31" d="M170.63,395c-.13,2-2.1,3.41-4.83,3.39a4.42,4.42,0,0,1-4.52-4.85c.06-2.63,1.71-4.81,4.7-4.68S170.85,390.64,170.63,395Z" transform="translate(-3.91 -3.98)"/><path class="cls-31" d="M170.71,442.47c-.05,3.66-2,5.11-4.68,5.24a4.38,4.38,0,0,1-4.74-4.63c0-2.87,1.73-5.14,5-4.89C169,438.4,170.81,440,170.71,442.47Z" transform="translate(-3.91 -3.98)"/><path class="cls-19" d="M151.91,68c-2.89,4.9-5.8,9.8-8.67,14.73-.79,1.35-1.74,2.38-3.46,2.21s-2.35-1.47-2.77-3c-.67-2.35-1.43-4.67-2.15-7q-1-3.92-2-7.83C139.22,67.54,145.65,66,151.91,68Z" transform="translate(-3.91 -3.98)"/><path class="cls-32" d="M90.89,46.72c-.18,3.27-1.75,5.17-4.54,5.21-3,0-4.93-1.93-4.79-5a4.35,4.35,0,0,1,4.79-4.49C89.34,42.46,90.67,44.28,90.89,46.72Z" transform="translate(-3.91 -3.98)"/><path class="cls-32" d="M105.9,42.37c2.9.17,4.6,1.62,4.66,4.58s-1.53,4.82-4.32,5c-3,.15-5-1.72-4.95-4.83C101.32,44.25,103,42.62,105.9,42.37Z" transform="translate(-3.91 -3.98)"/><path class="cls-32" d="M125.82,52c-2.8-.39-4.73-1.77-4.78-4.68-.06-3.09,1.64-5,4.81-4.93,2.93,0,4.47,1.79,4.44,4.72S128.51,51.54,125.82,52Z" transform="translate(-3.91 -3.98)"/><path class="cls-15" d="M378,75l-6.53,10.33c-.81,1.28-1.74,2.5-3.47,2.19s-2.36-1.65-2.77-3.11c-1.15-4.08-2.32-8.16-3.37-12.27-.56-2.23-1.7-3-4.09-3.07-10.6-.29-12.92-2.59-13.58-12.86.06-5.36,0-10.73.21-16.08.18-5.05,2.39-8.69,7.67-9.85h24.36c-7.64,9.86-3.91,20.44-4.14,30.42-.11,4.89,4,7.59,8.9,8.41Z" transform="translate(-3.91 -3.98)"/><path class="cls-33" d="M397.57,49.18c-.09,3.14-1.48,5-4.44,5s-5.13-1.57-5.22-4.66a4.63,4.63,0,0,1,4.52-4.92C395.55,44.38,397.11,46.46,397.57,49.18Z" transform="translate(-3.91 -3.98)"/><path class="cls-33" d="M432.29,44.5c3.13.57,4.81,2.36,4.67,5.43s-2,4.47-4.88,4.27c-3.07-.22-5-2.09-4.69-5.16C427.64,46.34,429.61,44.81,432.29,44.5Z" transform="translate(-3.91 -3.98)"/><path class="cls-33" d="M412.62,44.5c3.12.61,4.78,2.42,4.6,5.49s-2,4.44-4.93,4.2c-3.06-.25-5-2.13-4.62-5.2C408,46.3,409.92,44.77,412.62,44.5Z" transform="translate(-3.91 -3.98)"/><path class="cls-34" d="M264.55,44.51c-2.82,4.81-5.61,9.62-8.45,14.41-.84,1.41-1.75,3-3.7,2.76-2.19-.27-2.63-2.14-3.1-3.94-1.27-4.74-2.6-9.47-3.9-14.21C251.78,43.89,258.26,42.24,264.55,44.51Z" transform="translate(-3.91 -3.98)"/><path class="cls-35" d="M275.81,18.78c3.24.33,5.2,1.87,5.19,5a4.42,4.42,0,0,1-4.6,4.72c-3.06.07-4.93-1.76-5-4.84C271.41,20.74,273.35,19.34,275.81,18.78Z" transform="translate(-3.91 -3.98)"/><path class="cls-35" d="M241.64,23.63c-.34,3-1.91,4.9-5,4.84A4.41,4.41,0,0,1,232,23.8a4.47,4.47,0,0,1,4.9-4.89C239.74,18.94,241.24,20.8,241.64,23.63Z" transform="translate(-3.91 -3.98)"/><path class="cls-35" d="M256.31,18.81c3,.27,4.94,1.79,5,4.9a4.42,4.42,0,0,1-4.55,4.76c-3.07.11-5-1.72-5-4.8C251.67,20.82,253.5,19.29,256.31,18.81Z" transform="translate(-3.91 -3.98)"/><path class="cls-12" d="M49.3,264.35l-20.53-.26c-2.15-1.33-2.16-3.51-2.18-5.64q-.15-16.9,0-33.81c0-2.13,0-4.31,2.2-5.63l12.67-.16c8.51-5,23.29-2,29,6A29.29,29.29,0,0,0,72,228.26,8.65,8.65,0,0,1,73.08,233c.1,8.69.17,17.37,0,26-.13,5.53-1.91,7.3-7.51,7.36-4.68.06-9.55,1-13.83-1.94Z" transform="translate(-3.91 -3.98)"/><path class="cls-36" d="M97.4,248.72,90,248.66a6.07,6.07,0,0,1-5.77-1.85c-1.59-5.62-2-11.65-5.56-16.6a19.34,19.34,0,0,1-.28-3.8c.2-3.94-1.73-6.09-5.39-7.59a49.78,49.78,0,0,1-18.42-13.41c-3.6-4.08-6.43-8.58-7-14.17l-.21-1.71c-3.94-2.18-4.32-6.1-5-10-1-5.78-1.71-11.5,1-17,.34-5.54.75-11.08,1-16.62.2-4.24,1.64-6.76,6.53-6.06a69.6,69.6,0,0,0,8.31.24c2,2.55.73,5.33.57,8-.68,11.94-1.79,23.94,1.42,35.69,4.48,16.43,15.05,27.29,31,33a20.87,20.87,0,0,0,6.25,1.2c8.82.4,8.09-.34,9,7.77l.09.15C113.07,234.67,107,248.25,97.4,248.72Z" transform="translate(-3.91 -3.98)"/><path class="cls-37" d="M28.79,219q0,22.55,0,45.08,0,27.12,0,54.24a38.58,38.58,0,0,1-10.24-.08c.08-18.38.19-36.75.23-55.12q.06-22.4,0-44.8c0-3.71-.27-7.91,4.79-8s5.22,3.94,5.11,7.75A5.4,5.4,0,0,0,28.79,219Z" transform="translate(-3.91 -3.98)"/><path class="cls-28" d="M47.51,191.24C54,204.3,63.58,213.92,77.56,218.75c4,1.38,1.86,4.63,2.28,7.1-3.49,2.57-7,1.91-10.62.19-3.48-5.21-8.4-7.3-14.6-7.07-4.38.16-8.77-.07-13.16-.12C42.47,209.42,45.84,200.52,47.51,191.24Z" transform="translate(-3.91 -3.98)"/><path class="cls-38" d="M36.62,164.61c1.84-.93,3.57-2.2,5.82-1.82-.64,5.36-.94,10.73-1.13,16.13-.13,3.79,2.94,6.66,2.07,10.41-6.48-.28-10.44-4-10.9-10.21C32.1,173.79,32,168.53,36.62,164.61Z" transform="translate(-3.91 -3.98)"/><path class="cls-39" d="M43.38,189.33c-6.4-8.63-5.12-17.53-.94-26.54a1.92,1.92,0,0,1,.91-.26c0,9.19-.06,18.39,3.95,27Z" transform="translate(-3.91 -3.98)"/><path class="cls-40" d="M107.45,225.78c-.54-5.1-3.55-5.72-8.26-5.95-15.15-.76-25.86-9.45-33.92-21.51-5.78-8.64-8.19-18.49-8-28.92.14-9.8-.76-19.68,2-29.31,4.71-.59,9.46,0,14.19-.76,10.18-1.74,18.41-6.43,24.31-15,2.68-1.45,4,.69,5.2,2.26,6.15,7.76,14.55,10.69,24,11.45,2.28.19,4.58,0,6.87.05,9.51,0,11.33,1.93,11.24,11.64-1.42,7.82.42,15.63.17,23.44a58.88,58.88,0,0,1-1.08,10.68,8.65,8.65,0,0,1-3,5.42c-3,4.64-5.14,9.83-8.74,14.11C127,209.75,120.57,215,112.7,217.63,108.09,219.16,106.8,221.51,107.45,225.78Z" transform="translate(-3.91 -3.98)"/><path class="cls-13" d="M143.15,148.82c0-1.15-.09-2.29-.13-3.44-.17-3.87-1.65-5.83-6.06-5.58a74.43,74.43,0,0,1-15.21-.31c-8.89-1.31-16.06-5.35-21.22-12.81-.71-1-1.16-2.46-2.84-2.35.61-4.34-2-8.09-2.14-12.4-.27-6.58,1.22-12.32,5.28-17.44,4.7-3.13,9.75-5.18,15.54-4.84,16.39,2.41,27.89,10.84,32.9,27a33.35,33.35,0,0,1,1.52,9.18c.15,13,0,25.92,0,38.89-5.67.84-7.14-.38-7.29-5.76C143.43,155.6,144,152.18,143.15,148.82Z" transform="translate(-3.91 -3.98)"/><path class="cls-41" d="M469.68,162.62c0,9.2-.11,18.39-3.93,27-2.32,7.77-7.59,13.57-12.9,19.36A66.59,66.59,0,0,1,433,220c-2.59,2.68-5.88,2.5-9.18,2.17-18.35-1.82-36.15-17.76-40.92-37-3.28-13.21-2.72-26.62-1.15-40A9.9,9.9,0,0,1,384,139.8c2-1.73,4.53-1.58,7-1.67,10.95-.4,20.82-3.42,28.54-11.69,1-1.08,2.1-2.08,3.74-2,1.72-.38,2.2,1,2.93,2,6.39,9.21,15.42,13.24,26.4,13.37,3.43,0,6.88.22,10.29,0,3.65-.29,5.15,1,5.81,4.73C469.76,150.57,469.2,156.61,469.68,162.62Z" transform="translate(-3.91 -3.98)"/><path class="cls-1" d="M423.26,124.44c-7.25,10.65-17.77,14.9-30.2,15.41-2.77.11-5.55.15-8.33.22-1.73,1.79-3.94,2-6.28,2.08-5.7.2-6.31.88-6.45,6.65-.07,2.77,0,5.53-.06,8.3-.05,2.15-.37,4.21-1.9,5.89-2.48,1.15-4.86,2.77-7.81,1.64-.05-10.8-.36-21.6-.1-32.38.5-20.72,14-36.52,35.42-41.83,6.5-1,13.05-.67,19.58-.55a11.23,11.23,0,0,1,9.32,4.56c-6.13,7.92-6.54,16.6-3.45,25.76C423.47,121.58,423.89,123,423.26,124.44Z" transform="translate(-3.91 -3.98)"/><path class="cls-36" d="M303.84,189.29c-4.62,8.89-9.83,17.28-18.38,23.08-3.14,2.12-6.3,4.36-9.87,5.33-4.56,1.23-6.06,3.76-5.32,8.12-3.74-4.11-9.11-3.06-13.74-4.4-19.43-5.62-31.83-18.37-36.68-37.9-3.15-12.67-2.42-25.66-.83-38.55a9.79,9.79,0,0,1,2.36-5.3c4.27-2.61,9.2-1.56,13.8-2.29a37,37,0,0,0,20.59-10.29c1.75-1.7,3.29-3.69,6.11-3.54a6.43,6.43,0,0,1,3.95,2.75c6.74,9,16.38,11.43,26.92,11.76,2.13.07,4.27,0,6.4.05,5.81.2,7.49,1.69,8.73,7.27,1.3,5.86,1.06,11.74.64,17.65.9,7.23-.41,14.28-1.77,21.32A7.93,7.93,0,0,1,303.84,189.29Z" transform="translate(-3.91 -3.98)"/><path class="cls-42" d="M261.4,123.8c-9,11.78-20.94,16.79-35.57,16a28.51,28.51,0,0,0-3.9.27,6.6,6.6,0,0,1-4.75,2c-7.43.69-7.43.71-8.4,7.87-1.78,3.94-.35,8.38-1.91,12.35a4.61,4.61,0,0,1-1,1.16c-2.06.71-3.94,2.53-6.38,1.14.07-13.11-1.32-26.29.74-39.32,3.08-19.52,20.08-34.44,39.8-35.38,4.59-.22,9.2-.17,13.79,0,3.9.11,7.4,1.3,9.83,4.64.82,1.71.08,3.23-.66,4.67-3.19,6.18-3.16,12.55-1.37,19.08C262.08,120.07,262.93,122,261.4,123.8Z" transform="translate(-3.91 -3.98)"/><path class="cls-43" d="M261.4,123.8c-4-10.13-5-20,2.21-29.33,22.42-11.66,49.09,4.67,50,30.9.44,13.1,0,26.22,0,39.33-2.85,1.18-5,.17-6.67-2.18-.41-6,.12-12.08-1-18.1-.65-3.49-1.85-5.22-5.67-4.79-2.91.32-5.89,0-8.83.08C278.23,140.32,268.33,134.88,261.4,123.8Z" transform="translate(-3.91 -3.98)"/><path class="cls-44" d="M197.26,264.29,184.59,264c-2.11-1.35-2.13-3.52-2.14-5.65q-.15-16.86,0-33.73c0-2.12,0-4.3,2.19-5.62,8.46,0,16.92.18,25.37,0,6.35-.17,11.45,1.78,15.11,7.09,1.35,1,4.47-.77,4.19,2.72-.79,9.63-.13,19.27-.36,28.9-.16,7.11-1.63,8.66-8.65,8.75-4.07.06-8.18.38-12.12-1.05C204.77,262.64,201,263.88,197.26,264.29Z" transform="translate(-3.91 -3.98)"/><path class="cls-45" d="M207.09,149.62a1.72,1.72,0,0,1-.1-.48c.34-9.4.34-9.41,9.57-9.38,1.79,0,3.58.17,5.37.26-2.89,15-3.3,30,.21,44.92,4.32,18.3,21.29,33.11,39.48,35.32.33,0,.69.28,1,.2,4.92-1.58,7,.83,7.69,5.36l.09.09c3.76,6.19,1.94,15.57-4,20.83A22.33,22.33,0,0,1,261,250.2a20.48,20.48,0,0,1-9,0c-7.88-3.38-10.85-9.88-11.29-17.94-.13-2.31,0-4.6,1.9-6.35,1.14-4.63-.74-6.78-5.23-8.54-13.14-5.15-22.19-14.69-27.35-27.87-5.47-4-4.69-10-4.88-15.65C206.14,165.8,206.55,157.7,207.09,149.62Z" transform="translate(-3.91 -3.98)"/><path class="cls-37" d="M184.64,219q0,22.51,0,45c0,16.57.15,33.15-.25,49.71-.1,4.46,2.85,3.84,5.13,4.79l-18.72-.07c3.57.1,4-1.89,3.94-5-.12-31.53-.07-63.06-.07-94.6,0-1.15,0-2.3,0-3.45.11-3.07,1.67-5.07,4.76-5.17s4.78,1.8,5.07,4.85C184.58,216.38,184.58,217.69,184.64,219Z" transform="translate(-3.91 -3.98)"/><path class="cls-37" d="M371.89,317.72a12.61,12.61,0,0,1-9.85,0q-.07-41.07-.14-82.14c.05-6.14.16-12.29.11-18.43,0-2.36.23-4.51,2-6.26,3.52-2.85,7.08-2.11,9,1.83,1.08,2.19.75,4.49.7,6.78.61,13.22.21,26.46.23,39.69,0,1.85-.3,3.59-1.86,4.84Z" transform="translate(-3.91 -3.98)"/><path class="cls-11" d="M260.29,249.17a3.75,3.75,0,0,1,2-2c6.07-3.17,8.13-8.45,7.94-15-.06-2.1.05-4.22.08-6.33,4.87,0,9.76.2,14.62,0,3.63-.16,4.67,1.4,4,4.67-5.95,7.47-9.76,16.25-14.85,24.25-.35.55-.64,1.15-1,1.71-4.06,6.92-4.13,6.92-8.89.6C260.67,255.62,259.28,253,260.29,249.17Z" transform="translate(-3.91 -3.98)"/><path class="cls-11" d="M97.4,248.72c10.09-4.61,10.56-13.5,10.14-22.79,5,0,10,.06,15,0,2.87,0,4.37.95,3.47,4.06l-16.76,28.18c-2.92,4.93-3.79,4.95-6.69-.05C100.77,255,99.12,251.86,97.4,248.72Z" transform="translate(-3.91 -3.98)"/><path class="cls-46" d="M362.1,209l.14-21.47c2.38-1.54,4.63,1.22,7,.19a9.5,9.5,0,0,1,3,.58c2.53,1.24,3.58,3.73,4.85,6,2.11,3.71,4.88,6.93,7.31,10.4,1.23,1.75,3.22,3.76.19,5.79-4.5,1.15-9.08,1.44-13.45-.17C368.13,209.18,364.91,210.7,362.1,209Z" transform="translate(-3.91 -3.98)"/><path class="cls-36" d="M143.15,148.82a7.26,7.26,0,0,1,.76,5.19c-1,5.8,1,9.51,6.91,10.74,4.09,4.11,4.56,9.25,4,14.59-.73,6.84-5.77,10.41-13.73,9.93C144.26,175.91,142.62,162.31,143.15,148.82Z" transform="translate(-3.91 -3.98)"/><path class="cls-45" d="M306.89,162.52c2.46,0,4.58,1.06,6.67,2.18,4.56,4.28,4.68,9.81,3.95,15.37-.84,6.43-5.9,9.67-13.67,9.22C305.39,180.43,307.19,171.59,306.89,162.52Z" transform="translate(-3.91 -3.98)"/><path class="cls-47" d="M242.64,225.92c0,2.44.09,4.87.08,7.31,0,6.18,2.28,11,7.95,14a3.7,3.7,0,0,1,2,2c1,4.68-1.42,7.58-5.07,9.85-2.14,2.77-4.31,4.07-6.58.12-2.39-1.16-2.2-3.43-2.29-5.5-.14-3.27-.16-6.54,0-9.8.25-5.88-1.44-10.61-7.11-13.3a4.58,4.58,0,0,1-2.63-2.76c-1.08-1.05-3.06-.08-3.87-1.73Z" transform="translate(-3.91 -3.98)"/><path class="cls-48" d="M362.1,209l23.82,0a2.38,2.38,0,0,1,2.77-.15c4.06,2.45,8.24,4.7,12.23,7.25,1.53,1,3,2.46.46,4.14-8.62,1.67-17.31.61-26,.63a4.55,4.55,0,0,1-3.34-1.88c-.46-8.32-1.94-9.8-8.1-8.09Z" transform="translate(-3.91 -3.98)"/><path class="cls-49" d="M369,189.39c-2.53.44-4.62-.73-6.71-1.87-6-7.39-6-15.58,0-22.89a11.54,11.54,0,0,1,6.4-2.06c4.5,1.47,3.3,4.78,2.58,7.93-2.13,3.2-2.85.09-4.2-1.12,0,6.28-1.06,12.45,2.15,18.17A1.8,1.8,0,0,1,369,189.39Z" transform="translate(-3.91 -3.98)"/><path class="cls-50" d="M199.45,164.58c1.79-1,3.51-2.18,5.72-1.86,1.16,3.61-1.12,6.83-1.17,10.42-.06,5.57,1.44,10.8,2.12,16.19-6.4-.33-10.43-4.14-10.81-10.27C195,173.76,194.86,168.49,199.45,164.58Z" transform="translate(-3.91 -3.98)"/><path class="cls-36" d="M206.12,189.33c-6.46-8.65-4.89-17.59-1-26.61h0c2.23,0,1.38,1.74,1.5,2.82.34,3-.52,6.12.51,9.11-.39,5.22,1.13,10.07,2.9,14.86Z" transform="translate(-3.91 -3.98)"/><path class="cls-22" d="M372.07,219,403,219c4.59-2.09,6.69,1.69,9.31,4a8.74,8.74,0,0,1,2.62,5.1,12.68,12.68,0,0,1,1.48,6.13c0,8.18.13,16.37-.05,24.55-.12,5.82-1.86,7.58-7.77,7.6-4.66,0-9.56,1.12-13.77-2.07l-22.73-.26Z" transform="translate(-3.91 -3.98)"/><path class="cls-29" d="M413.28,227.25c-2.51-3.91-5.55-7.17-10.3-8.29A94.38,94.38,0,0,1,385.92,209c-5.79-5.8-9.91-12.78-14-19.76-4.33-5.16-5.17-12.77-1.95-17.58-.44-3,1.13-6.36-1.3-9.11,1.9-2.86.74-6.07,1-9.11s.33-6.21.61-9.31,1.78-4.63,5.15-4.3c3.09.3,6.21.17,9.32.22-2.9,19.11-4.94,38.26,5,56.08,7.59,13.65,19.26,22.1,35,24.12,2.7.34,5.52-.18,8.28-.3q.08,5.13.17,10.26c-.2,5.24-.1,10.57-4.54,14.48-2.19-.39-2.17-2.29-2.32-3.79-.55-5.72-3.6-9.32-9-11A11.64,11.64,0,0,1,413.28,227.25Z" transform="translate(-3.91 -3.98)"/><path class="cls-51" d="M413.28,227.25c11,1.25,14,4.61,15.35,17.46-.1,7.7-.44,15.41-.21,23.1.11,3.83-1.2,4.75-4.76,4.54-4.9-.29-9.83-.15-14.75-.05-6.33.13-11.08-2.36-14.11-8l15.75,0c1.94,0,3.81-.21,3.72-2.75C413.89,250.14,415.44,238.64,413.28,227.25Z" transform="translate(-3.91 -3.98)"/><path class="cls-42" d="M79.84,230.14c5,4.33,5.37,10.22,5.34,16.22,2.85,3.5.55,7,0,10.48,0,1.31-.14,2.61-.15,3.92,0,11.52,0,11.52-11.8,11.52-2.79,0-5.57,0-8.36,0-5.9-.06-10.42-2.44-13.15-7.82l15.74-.16c1.69,0,3.55,0,3.5-2.39-.28-11.45,1-22.94-.77-34.36C73.92,226.48,77.47,226.12,79.84,230.14Z" transform="translate(-3.91 -3.98)"/><path class="cls-52" d="M85.17,256.84q0-5.23,0-10.48c1.75.45,3.49.91,4.78,2.3A35.36,35.36,0,0,1,85.17,256.84Z" transform="translate(-3.91 -3.98)"/><path class="cls-53" d="M263.33,320.7c-1.74-3.76-2.17-7.88-2.67-11.85-.6-4.82-2.67-6.62-7.36-6a36,36,0,0,1-5.39-.09q0-15.18,0-30.37c0-1.78-.29-3.63,1-5.17,4.72-2.65,9.45-3.07,14.18,0a5.55,5.55,0,0,1,1,3.71q0,23.5,0,47A13.25,13.25,0,0,1,263.33,320.7Z" transform="translate(-3.91 -3.98)"/><path class="cls-54" d="M263,267.15l-14.18,0L247.63,259l5.07-9.84a10.57,10.57,0,0,1,7.59,0q2,4,4,8C263.75,260.45,264.31,263.91,263,267.15Z" transform="translate(-3.91 -3.98)"/><path class="cls-55" d="M229,227.78c7.38,1.35,11.58,5.95,11.83,13.27.21,6,.16,12.06.23,18.09-.06,3.44-.24,6.89-.15,10.34,0,2.09-.58,2.89-2.77,2.84-6.25-.14-12.5.12-18.74-.15a12.69,12.69,0,0,1-11.21-6.8c4.16-2.21,8.63-1,12.92-.92s6.1-1,5.89-5.72c-.44-9.44-.16-18.91-.5-28.36C226.4,228,227.58,228.08,229,227.78Z" transform="translate(-3.91 -3.98)"/><path class="cls-56" d="M79.84,230.14c-3-1.58-6.15-2.81-9.66-2.6l-1-1.5,10.62-.19Z" transform="translate(-3.91 -3.98)"/><path class="cls-50" d="M94.25,197.37a19.44,19.44,0,0,1-13.32-4.56c-1.61-1.34-2.79-3.11-1.28-5.1s3.56-1.71,5.26-.42c5.85,4.45,11.58,4.58,17.47.08,1.69-1.3,3.74-1.62,5.18.41s.25,3.81-1.35,5.1C102.54,195.83,98.41,197.66,94.25,197.37Z" transform="translate(-3.91 -3.98)"/><path class="cls-57" d="M78.84,156.26c-.93,5.36-3.81,8-7.93,7.16a6.83,6.83,0,0,1-5.49-8c.94-4.15,4.32-5.91,8.9-4.63C75,153.33,77,154.7,78.84,156.26Z" transform="translate(-3.91 -3.98)"/><path class="cls-58" d="M120.7,156.52c2.14,4.23-1,5.62-3.92,6.68-3.4,1.22-7.4-1.4-8.19-5-1.16-5.22,3.37-9,8.91-7.45A20.89,20.89,0,0,0,120.7,156.52Z" transform="translate(-3.91 -3.98)"/><path class="cls-59" d="M93.55,177.49c-2-.49-4-.82-5.51-2.21-1.36-1.24-2.76-2.56-1.47-4.6,1.12-1.76,2.73-2.35,4.63-1.24a4.62,4.62,0,0,0,5.07,0c1.65-.94,3.17-.7,4.19,1.05,1.13,1.92.42,3.54-1.17,4.7A11.26,11.26,0,0,1,93.55,177.49Z" transform="translate(-3.91 -3.98)"/><path class="cls-60" d="M78.84,156.26c-1.72.6-3.36.88-4.76-.76s-.94-3.2.24-4.71C79.2,149.76,80.42,151.25,78.84,156.26Z" transform="translate(-3.91 -3.98)"/><path class="cls-61" d="M120.7,156.52c-4.49,0-5.37-2-3.2-5.74,2-1,3.75-1,5.09,1.06C124.18,154.28,122.09,155.27,120.7,156.52Z" transform="translate(-3.91 -3.98)"/><path class="cls-62" d="M419.64,197.33a18,18,0,0,1-12.92-4.5c-1.6-1.3-2.77-3.07-1.26-5.11s3.5-1.64,5.21-.32c5.7,4.37,11.33,4.43,17.08.12,1.88-1.42,4.05-1.87,5.64.27s.22,3.8-1.4,5.09C428.31,195.79,424.27,197.84,419.64,197.33Z" transform="translate(-3.91 -3.98)"/><path class="cls-63" d="M447.72,156.17c-.09,4.45-2.4,7.13-6.77,7.32-3.43.14-5.86-2-6.64-5.34s.85-6,3.9-7.56a5.47,5.47,0,0,1,5.14-.06A10,10,0,0,0,447.72,156.17Z" transform="translate(-3.91 -3.98)"/><path class="cls-57" d="M404.25,156.24c-.22,4.6-2.8,7.46-6.63,7.34a7,7,0,0,1-6.62-7.2c.27-4.41,3.69-6.65,9.29-6.08C401.13,152.6,401.82,155,404.25,156.24Z" transform="translate(-3.91 -3.98)"/><path class="cls-64" d="M419.86,177.51a11.24,11.24,0,0,1-6.65-2.78,3.18,3.18,0,0,1-.62-4.42,2.74,2.74,0,0,1,3.84-1.06c1.67.85,3.24,1.47,5.06.33,2-1.27,3.86-.84,5,1.23,1.27,2.32-.43,3.79-2.07,4.83A25.14,25.14,0,0,1,419.86,177.51Z" transform="translate(-3.91 -3.98)"/><path class="cls-65" d="M404.25,156.24c-1.84.87-3.46.71-4.69-1.07s-.36-3.37.73-4.87C405.64,150.07,406.63,151.55,404.25,156.24Z" transform="translate(-3.91 -3.98)"/><path class="cls-66" d="M447.72,156.17c-1.79.82-3.45.92-4.86-.78s-.68-3.34.49-4.86C448.4,149.83,449.54,151.3,447.72,156.17Z" transform="translate(-3.91 -3.98)"/><path class="cls-67" d="M255.6,197.42c-3.87.23-8-1.64-11.68-4.53-1.68-1.31-2.85-2.91-1.38-5s3.43-1.88,5.15-.56c5.85,4.48,11.6,4.56,17.48.08,1.72-1.32,3.7-1.62,5.2.36s.48,3.74-1.15,5.1C265.57,195.87,261.35,197.43,255.6,197.42Z" transform="translate(-3.91 -3.98)"/><path class="cls-68" d="M285,156.16c-1.07,5.35-3.89,8-7.83,7.36a7,7,0,0,1-5.7-8.28c1-4.05,4.46-5.77,8.91-4.39A11,11,0,0,0,285,156.16Z" transform="translate(-3.91 -3.98)"/><path class="cls-69" d="M241.49,156.13c-.33,5-3.37,8-7.47,7.38a6.9,6.9,0,0,1-5.72-8.21c1-4.14,4.4-5.84,8.82-4.43A9.85,9.85,0,0,0,241.49,156.13Z" transform="translate(-3.91 -3.98)"/><path class="cls-70" d="M257.27,177.41a10.88,10.88,0,0,1-6.43-2.26c-1.59-1.21-2.26-2.86-1.1-4.74,1-1.68,2.56-1.94,4.24-1,1.52.85,3,1.22,4.61.21,2-1.21,3.86-1.1,4.88,1.25s-.26,3.81-2.16,4.82A41.67,41.67,0,0,1,257.27,177.41Z" transform="translate(-3.91 -3.98)"/><path class="cls-71" d="M241.49,156.13a3.31,3.31,0,0,1-4.71-.83c-1.21-1.55-.71-3,.33-4.43,1.61-.81,3.31-1.54,4.73.15S242.94,154.52,241.49,156.13Z" transform="translate(-3.91 -3.98)"/><path class="cls-72" d="M285,156.16c-1.71.71-3.34,1-4.78-.62s-1.08-3.17.16-4.69c1.67-.87,3.24-1.19,4.71.48S285.75,154.57,285,156.16Z" transform="translate(-3.91 -3.98)"/><path class="cls-50" d="M207.16,174.65c-2.45-3.68.62-8.28-2-11.93,2.42-2.28.88-5.22,1.29-7.83.27-1.75.44-3.51.65-5.27Q207.12,162.13,207.16,174.65Z" transform="translate(-3.91 -3.98)"/><path class="cls-73" d="M369.93,171.68c-.78,6,1.31,11.72,1.95,17.58l-2.93.13c-5.2-6.69-5.73-19.45-.76-24.95C369.88,166.68,368,169.72,369.93,171.68Z" transform="translate(-3.91 -3.98)"/></svg>
